<svg width="40" height="40" viewBox="0 0 40 40" fill="none" xmlns="http://www.w3.org/2000/svg">
<g filter="url(#filter0_i_46_2104)">
<path d="M30 2H10C5.58172 2 2 5.58172 2 10V30C2 34.4183 5.58172 38 10 38H30C34.4183 38 38 34.4183 38 30V10C38 5.58172 34.4183 2 30 2Z" fill="url(#paint0_linear_46_2104)"/>
<g filter="url(#filter1_dd_46_2104)">
<path d="M12.7175 15.2632L12.7665 15.2632L27.2825 15.2632C27.7627 15.2631 28.2002 15.2631 28.5504 15.3114C28.9355 15.3645 29.3456 15.4916 29.6512 15.8439C29.9535 16.1924 30.0099 16.5961 29.9987 16.9631C29.9884 17.3022 29.9147 17.7172 29.8326 18.1791L29.8326 18.1791L28.6427 24.8799C28.4548 25.9385 28.3027 26.7948 28.0935 27.4643C27.8762 28.1599 27.5738 28.7364 27.0297 29.1815C26.4834 29.6283 25.8404 29.8224 25.0893 29.9132C24.3708 30 23.4728 30 22.3693 30H17.6307C16.5272 30 15.6292 30 14.9107 29.9132C14.1596 29.8224 13.5166 29.6283 12.9703 29.1815C12.4262 28.7364 12.1238 28.1599 11.9065 27.4643C11.6973 26.7948 11.5452 25.9386 11.3573 24.8799L10.1753 18.2232L10.1674 18.1791C10.0854 17.7172 10.0116 17.3022 10.0013 16.9631C9.99013 16.5961 10.0465 16.1924 10.3488 15.8439C10.6544 15.4916 11.0645 15.3645 11.4496 15.3114C11.7998 15.2631 12.2373 15.2631 12.7175 15.2632Z" fill="url(#paint1_linear_46_2104)"/>
<path fill-rule="evenodd" clip-rule="evenodd" d="M20.2517 11.6232C18.3914 11.6232 16.8833 13.0766 16.8833 14.8696V15.2754C16.8833 15.7236 16.5063 16.087 16.0412 16.087C15.5761 16.087 15.1991 15.7236 15.1991 15.2754V14.8696C15.1991 12.1802 17.4612 10 20.2517 10C23.0422 10 25.3044 12.1802 25.3044 14.8696V15.2754C25.3044 15.7236 24.9273 16.087 24.4623 16.087C23.9972 16.087 23.6201 15.7236 23.6201 15.2754V14.8696C23.6201 13.0766 22.1121 11.6232 20.2517 11.6232Z" fill="white"/>
</g>
</g>
<defs>
<filter id="filter0_i_46_2104" x="2" y="2" width="36" height="44" filterUnits="userSpaceOnUse" color-interpolation-filters="sRGB">
<feFlood flood-opacity="0" result="BackgroundImageFix"/>
<feBlend mode="normal" in="SourceGraphic" in2="BackgroundImageFix" result="shape"/>
<feColorMatrix in="SourceAlpha" type="matrix" values="0 0 0 0 0 0 0 0 0 0 0 0 0 0 0 0 0 0 127 0" result="hardAlpha"/>
<feOffset dy="8"/>
<feGaussianBlur stdDeviation="8"/>
<feComposite in2="hardAlpha" operator="arithmetic" k2="-1" k3="1"/>
<feColorMatrix type="matrix" values="0 0 0 0 1 0 0 0 0 1 0 0 0 0 1 0 0 0 0.2 0"/>
<feBlend mode="normal" in2="shape" result="effect1_innerShadow_46_2104"/>
</filter>
<filter id="filter1_dd_46_2104" x="7.77778" y="6.66667" width="24.4444" height="26.6667" filterUnits="userSpaceOnUse" color-interpolation-filters="sRGB">
<feFlood flood-opacity="0" result="BackgroundImageFix"/>
<feColorMatrix in="SourceAlpha" type="matrix" values="0 0 0 0 0 0 0 0 0 0 0 0 0 0 0 0 0 0 127 0" result="hardAlpha"/>
<feOffset dy="1.11111"/>
<feGaussianBlur stdDeviation="1.11111"/>
<feComposite in2="hardAlpha" operator="out"/>
<feColorMatrix type="matrix" values="0 0 0 0 0 0 0 0 0 0 0 0 0 0 0 0 0 0 0.2 0"/>
<feBlend mode="normal" in2="BackgroundImageFix" result="effect1_dropShadow_46_2104"/>
<feColorMatrix in="SourceAlpha" type="matrix" values="0 0 0 0 0 0 0 0 0 0 0 0 0 0 0 0 0 0 127 0" result="hardAlpha"/>
<feOffset dy="-1.11111"/>
<feGaussianBlur stdDeviation="1.11111"/>
<feComposite in2="hardAlpha" operator="out"/>
<feColorMatrix type="matrix" values="0 0 0 0 1 0 0 0 0 1 0 0 0 0 1 0 0 0 0.6 0"/>
<feBlend mode="normal" in2="effect1_dropShadow_46_2104" result="effect2_dropShadow_46_2104"/>
<feBlend mode="normal" in="SourceGraphic" in2="effect2_dropShadow_46_2104" result="shape"/>
</filter>
<linearGradient id="paint0_linear_46_2104" x1="32.7059" y1="38" x2="3.58824" y2="7.29412" gradientUnits="userSpaceOnUse">
<stop stop-color="#8D33FF"/>
<stop offset="1" stop-color="#00A3FF"/>
</linearGradient>
<linearGradient id="paint1_linear_46_2104" x1="18" y1="17.5" x2="16.5" y2="32.5" gradientUnits="userSpaceOnUse">
<stop stop-color="white"/>
<stop offset="0.399038" stop-color="#C0DEFF"/>
<stop offset="1" stop-color="#9B9BFF"/>
</linearGradient>
</defs>
</svg>
